<?xml version="1.0" standalone="no"?>
<!DOCTYPE svg PUBLIC "-//W3C//DTD SVG 20010904//EN"
 "http://www.w3.org/TR/2001/REC-SVG-20010904/DTD/svg10.dtd">
<svg version="1.0" xmlns="http://www.w3.org/2000/svg"
 width="500.000000pt" height="500.000000pt" viewBox="0 0 500.000000 500.000000"
 preserveAspectRatio="xMidYMid meet">

<g transform="translate(0.000000,500.000000) scale(0.100000,-0.100000)"
fill="#000000" stroke="none">
<path d="M750 3992 c-14 -5 -35 -23 -48 -42 -31 -45 -25 -100 14 -141 l28 -29
237 0 237 0 31 -31 c17 -17 31 -40 31 -51 0 -11 9 -55 19 -97 21 -80 59 -238
92 -381 11 -47 29 -119 39 -160 11 -41 22 -88 26 -105 7 -40 41 -183 65 -275
10 -41 30 -127 44 -190 14 -63 35 -146 45 -185 11 -38 20 -80 20 -91 0 -12 6
-40 14 -62 13 -36 26 -89 73 -306 8 -38 24 -90 35 -115 15 -35 16 -47 6 -50
-32 -11 -120 -108 -144 -160 -23 -48 -27 -70 -27 -151 -1 -83 2 -102 25 -151
32 -69 107 -144 184 -183 50 -25 67 -29 148 -29 76 1 100 5 147 26 56 25 159
110 159 130 0 6 7 18 15 27 39 43 53 188 29 293 l-6 27 416 0 416 0 -8 -32
c-4 -18 -7 -73 -6 -123 0 -80 3 -96 31 -150 40 -78 92 -128 171 -167 58 -29
72 -32 155 -31 78 0 101 5 148 27 112 52 189 152 210 269 26 152 -41 299 -175
382 -71 44 -94 45 -856 45 -690 0 -727 1 -767 19 -53 25 -68 49 -87 141 -9 41
-16 76 -16 78 0 1 388 2 863 2 535 0 875 4 897 10 42 12 76 58 85 115 4 22 15
74 25 115 25 101 64 265 91 380 12 52 31 129 41 170 11 41 26 102 34 135 33
153 45 205 63 275 39 154 51 209 51 235 0 22 -18 63 -43 97 -1 2 -560 5 -1242
8 l-1240 5 -6 35 c-15 80 -52 218 -71 262 -25 55 -96 127 -158 160 -43 22 -55
23 -290 25 -135 1 -256 -1 -270 -5z m1451 -792 c4 -47 10 -145 13 -218 l7
-132 -258 2 -258 3 -16 65 c-9 36 -31 126 -49 200 -17 74 -34 143 -36 153 -5
16 12 17 293 15 l298 -3 6 -85z m809 77 c0 -7 -9 -101 -20 -208 -11 -107 -20
-200 -20 -206 0 -10 -59 -13 -260 -13 l-259 0 -5 33 c-5 28 -26 348 -26 392 0
13 36 15 295 15 237 0 295 -3 295 -13z m810 6 c0 -4 -20 -88 -44 -187 -24
-100 -47 -196 -51 -214 l-7 -32 -261 2 -262 3 2 25 c1 14 10 112 19 218 l17
192 294 0 c161 0 293 -3 293 -7z m-1566 -760 c4 -60 11 -155 16 -212 5 -58 7
-109 4 -113 -3 -4 -97 -8 -209 -8 l-205 0 -5 28 c-8 38 -52 222 -76 313 -10
42 -19 81 -19 88 0 8 69 11 244 11 l244 0 6 -107z m701 70 c-13 -98 -25 -239
-25 -302 0 -109 17 -101 -215 -101 -112 0 -206 4 -209 9 -7 11 -36 320 -36
384 l0 47 245 0 245 0 -5 -37z m704 30 c0 -5 -8 -44 -18 -88 -11 -44 -29 -125
-41 -180 -12 -55 -28 -115 -36 -132 l-13 -33 -200 0 c-110 0 -202 4 -205 9 -5
8 16 291 30 389 l5 42 240 0 c131 0 239 -3 238 -7z m-1617 -1140 c98 -87 33
-263 -97 -263 -47 0 -109 40 -134 87 -31 60 7 166 69 192 38 16 138 6 162 -16z
m1525 -16 c33 -33 36 -40 36 -94 0 -67 -5 -80 -51 -118 -64 -53 -148 -43 -206
25 -20 25 -26 42 -26 81 0 53 10 79 44 115 26 28 48 33 114 30 46 -2 58 -8 89
-39z"/>
</g>
</svg>
